P3
# feep.ppm
4 12
15
 0  1  0    0  0  0    0  0  0    5  0 15
 9  2  0    0 15  7    0  0  0    0  0  0
 0  3  0    0  0  0    0 15  7    0  6  0
 5  4  1    0  0  0    0  0  0    0  0  0
 0  1  0    0  9  0    0 14  0   15  0 15
 0  2  0    0 15  7    0  0  0    0  0  0
 0  3  0    0  0  0    0 15  7    0  0  0
15  4 15    0  0  0    0  0  0    0  0  0
 0  1  0    0  9  0    0 14  0   15  0 15
 0  2  0    0 15  7    0  0  0    0  0  0
 0  3  0    0  0  0    0 15  7    0  0  0
15  4 15    0  0  0    0  0  0    0  0  0